<svg width="17" height="17" viewBox="0 0 17 17" fill="none" xmlns="http://www.w3.org/2000/svg">
<path d="M8.5 0C3.80557 0 0 3.80557 0 8.5C0 13.1944 3.80557 17 8.5 17C13.1944 17 17 13.1944 17 8.5C17 3.80557 13.1944 0 8.5 0ZM8.5 13.4793C7.92498 13.4793 7.45877 13.0129 7.45877 12.438C7.45877 11.863 7.92509 11.3968 8.5 11.3968C9.07502 11.3968 9.54123 11.8631 9.54123 12.438C9.54123 13.013 9.07502 13.4793 8.5 13.4793ZM10.1545 8.99265C9.65184 9.4953 9.36697 9.80255 9.36697 10.2877V10.53C9.36697 10.6265 9.28931 10.7036 9.1939 10.7036H7.80535C7.71008 10.7036 7.63229 10.626 7.63229 10.53V10.2877C7.63229 9.06069 8.35055 8.34308 8.92734 7.76629C9.43012 7.26295 9.71433 6.95453 9.71433 6.47055C9.71433 5.80092 9.17033 5.25626 8.50005 5.25626C7.83042 5.25626 7.28576 5.80092 7.28576 6.47055C7.28576 6.5665 7.20811 6.64361 7.1127 6.64361H5.72481C5.62886 6.64361 5.55174 6.5665 5.55174 6.47055C5.55174 4.84469 6.87351 3.52171 8.50003 3.52171C10.1271 3.52171 11.4477 4.84469 11.4477 6.47124C11.4477 7.69705 10.7313 8.41531 10.1545 8.99265H10.1545Z" fill="#2563EB"/>
</svg>
