<svg width="17" height="17" viewBox="0 0 17 17" fill="none" xmlns="http://www.w3.org/2000/svg">
<path d="M8.5 0C3.80557 0 0 3.80557 0 8.5C0 13.1944 3.80557 17 8.5 17C13.1944 17 17 13.1944 17 8.5C17 3.80557 13.1944 0 8.5 0Z" fill="#41B871"/>
<path d="M12.5425 5.63801C12.8192 5.91463 12.8192 6.36312 12.5425 6.63974L7.82031 11.362C7.54369 11.6386 7.0952 11.6386 6.81858 11.362L4.45747 9.00085C4.18084 8.72423 4.18084 8.27574 4.45747 7.99912C4.73409 7.7225 5.18258 7.7225 5.4592 7.99912L7.31944 9.85936L11.5408 5.63801C11.8174 5.36139 12.2659 5.36139 12.5425 5.63801Z" fill="white"/>
</svg>
